<?xml version="1.0" encoding="UTF-8" standalone="no"?>
<svg
   version="1.1"
   id="svg2985"
   sodipodi:docname="Hotstar Specials.svg"
   inkscape:version="1.1.1 (3bf5ae0d25, 2021-09-20)"
   x="0px"
   y="0px"
   width="1000"
   height="422.41095"
   viewBox="-737 -390.5 1000 422.41095"
   enable-background="new -737 -390.5 1920 1080"
   xml:space="preserve"
   xmlns:inkscape="http://www.inkscape.org/namespaces/inkscape"
   xmlns:sodipodi="http://sodipodi.sourceforge.net/DTD/sodipodi-0.dtd"
   xmlns="http://www.w3.org/2000/svg"
   xmlns:svg="http://www.w3.org/2000/svg"
   xmlns:rdf="http://www.w3.org/1999/02/22-rdf-syntax-ns#"
   xmlns:cc="http://creativecommons.org/ns#"
   xmlns:dc="http://purl.org/dc/elements/1.1/"><metadata
   id="metadata30"><rdf:RDF><cc:Work
       rdf:about=""><dc:format>image/svg+xml</dc:format><dc:type
         rdf:resource="http://purl.org/dc/dcmitype/StillImage" /></cc:Work></rdf:RDF></metadata><defs
   id="defs28"><linearGradient
     y2="84.295403"
     x2="189.4962"
     y1="184.4834"
     x1="930.50293"
     gradientUnits="userSpaceOnUse"
     id="SVGID_1_"
     gradientTransform="matrix(0.5322561,0,0,0.5322561,-816.53785,132.19603)"><stop
       id="stop4543"
       style="stop-color:#101C50"
       offset="0" /><stop
       id="stop4545"
       style="stop-color:#0D267A"
       offset="0.236" /><stop
       id="stop4547"
       style="stop-color:#085AA4"
       offset="0.4973" /><stop
       id="stop4549"
       style="stop-color:#058BBF"
       offset="0.6549" /><stop
       id="stop4551"
       style="stop-color:#B1FFFF"
       offset="1" /></linearGradient><linearGradient
     y2="84.295403"
     x2="189.4962"
     y1="184.4834"
     x1="930.50293"
     gradientUnits="userSpaceOnUse"
     id="SVGID_1_-6"
     gradientTransform="matrix(0.53225648,0,0,0.53225648,-517.80047,-106.54542)"><stop
       id="stop4543-7"
       style="stop-color:#101C50"
       offset="0" /><stop
       id="stop4545-5"
       style="stop-color:#0D267A"
       offset="0.236" /><stop
       id="stop4547-2"
       style="stop-color:#085AA4"
       offset="0.4973" /><stop
       id="stop4549-0"
       style="stop-color:#058BBF"
       offset="0.6549" /><stop
       id="stop4551-3"
       style="stop-color:#B1FFFF"
       offset="1" /></linearGradient><linearGradient
     y2="84.295403"
     x2="189.4962"
     y1="184.4834"
     x1="930.50293"
     gradientUnits="userSpaceOnUse"
     id="SVGID_1_-4"
     gradientTransform="matrix(0.1408262,0,0,0.1408262,-193.4907,46.079183)"><stop
       id="stop4543-1"
       style="stop-color:#101C50"
       offset="0" /><stop
       id="stop4545-0"
       style="stop-color:#0D267A"
       offset="0.236" /><stop
       id="stop4547-1"
       style="stop-color:#085AA4"
       offset="0.4973" /><stop
       id="stop4549-9"
       style="stop-color:#058BBF"
       offset="0.6549" /><stop
       id="stop4551-9"
       style="stop-color:#B1FFFF"
       offset="1" /></linearGradient></defs><sodipodi:namedview
   pagecolor="#ffffff"
   bordercolor="#666666"
   borderopacity="1"
   objecttolerance="10"
   gridtolerance="10"
   guidetolerance="10"
   inkscape:pageopacity="0"
   inkscape:pageshadow="2"
   inkscape:window-width="1366"
   inkscape:window-height="705"
   id="namedview26"
   showgrid="false"
   inkscape:zoom="0.5"
   inkscape:cx="475"
   inkscape:cy="307"
   inkscape:window-x="-8"
   inkscape:window-y="-8"
   inkscape:window-maximized="1"
   inkscape:current-layer="svg2985"
   inkscape:pagecheckerboard="0" />
<radialGradient
   id="rect2997_1_"
   cx="561.92682"
   cy="389.28711"
   r="499.66339"
   gradientTransform="matrix(1.047168e-4,1.7397,2.5093,0,-753.8755,-458.8214)"
   gradientUnits="userSpaceOnUse">
	<stop
   offset="0"
   style="stop-color:#21469F"
   id="stop2" />
	<stop
   offset="1"
   style="stop-color:#060322"
   id="stop4" />
</radialGradient>


<g
   id="g9502"><path
     style="fill:#000000;fill-opacity:1;stroke-width:10.6791"
     d="m 114.37454,-351.7458 v 24.24142 c -20.396979,0.68345 -30.819678,13.13518 -30.819678,34.22624 v 46.90235 c 0,13.01775 -10.5509,23.56862 -23.568651,23.56862 v -125.5427 h 21.988118 v 11.31979 h 0.448714 c 5.659832,-8.37239 15.409829,-13.80802 31.951617,-14.71572 z"
     id="path157" /><path
     style="fill:#000000;fill-opacity:1;stroke-width:10.6791"
     d="m -131.74514,-390.5 v 42.15013 h 20.63188 v 21.52894 h -20.6212 v 104.01376 c -13.01776,0 -23.56865,-10.55087 -23.56865,-23.56862 v -80.44514 h -9.73924 v -21.52894 h 9.73924 V -390.5 h 23.56865 z"
     id="path155" /><path
     style="fill:#000000;fill-opacity:1;stroke-width:10.6791"
     d="m -295.45471,-390.5 v 42.15013 h 20.63194 v 21.52894 h -20.64262 v 104.01376 c -13.00704,0 -23.56862,-10.55087 -23.56862,-23.56862 v -80.44514 h -9.72858 v -21.52894 h 9.72858 V -390.5 h 23.56862 z"
     id="path153" /><path
     style="fill:#000000;fill-opacity:1;stroke-width:10.6791"
     d="m -614.44809,-390.5 c 13.01773,0 23.56863,10.55087 23.56863,23.56859 v 31.95169 h 0.45885 c 7.47534,-11.10619 19.48924,-16.76608 35.12337,-16.76608 29.91194,0 52.34863,19.03 52.34863,53.48059 v 75.45804 h -23.56864 v -68.20699 c 0,-26.96458 -10.42271,-39.2027 -31.26818,-39.2027 -20.63195,0 -33.09435,14.95059 -33.09435,39.42697 v 67.98272 h -23.56864 z"
     id="path151" /><path
     style="fill:#000000;fill-opacity:1;stroke-width:10.6791"
     d="m -222.70917,-351.75649 c 20.85623,0 37.84653,14.5128 38.53,36.71452 h -23.56858 c -1.13202,-9.0558 -6.34337,-15.17489 -16.09336,-15.17489 -9.06649,0 -14.72639,6.11909 -14.72639,13.35946 0,10.65768 10.89264,13.82932 23.34436,17.68445 17.67382,5.43564 33.99138,16.08261 33.99138,39.42702 0,24.24141 -17.68448,40.11043 -42.1501,40.11043 -22.66093,0 -44.4248,-15.40984 -44.4248,-44.42478 h 23.57929 c 1.13198,15.19624 8.83152,22.89583 21.294,22.89583 10.88188,0 18.13299,-7.02675 18.13299,-17.22524 0,-8.60736 -6.56759,-14.26722 -21.30465,-19.03006 -30.81974,-9.74997 -36.03103,-23.12006 -36.03103,-37.39795 0,-22.21238 18.80571,-36.93879 39.42689,-36.93879 z"
     id="path149" /><path
     id="path147"
     style="fill:#000000;fill-opacity:1;stroke-width:10.6791"
     d="m -412.61436,-351.75649 c 34.66412,0 67.33924,27.19995 66.85073,67.08568 -0.41883,34.19479 -29.65544,66.25817 -71.02622,64.99259 -35.08049,-1.07314 -64.90176,-31.21484 -64.4907,-66.30609 0.44345,-37.85727 30.43525,-65.77218 68.66619,-65.77218 z m -1.13195,21.53963 c -27.02864,0 -49.89804,26.21844 -42.59869,55.43483 4.94952,19.81102 23.01351,34.17015 43.43161,33.60691 24.10278,-0.66488 43.57046,-19.92706 43.57046,-44.85192 0,-24.48705 -19.71346,-44.18982 -44.40338,-44.18982 z"
     sodipodi:nodetypes="ssssssssss" /><path
     id="path2"
     style="fill:#000000;fill-opacity:1;stroke-width:10.6791"
     d="m -37.908471,-351.75649 c 18.3466,0 33.7564332,6.80256 43.5063617,21.08045 H 6.046578 v -17.67383 h 23.568578 v 125.5427 H 6.046578 v -19.48922 H 5.5978907 c -8.8422625,14.95065 -24.7112067,22.66089 -42.6092997,22.66089 -36.703827,0 -66.615851,-27.64802 -66.615851,-63.90336 0,-40.11041 28.779998,-68.21763 65.718789,-68.21763 z m 0.672821,21.53963 c -24.882229,0 -44.963873,22.46908 -42.652074,49.01672 1.906405,21.89247 19.798921,39.58463 41.755023,40.02502 24.903508,0.49951 44.6383296,-20.09789 44.6383296,-44.17912 0,-24.47638 -17.6844906,-44.86262 -43.7412786,-44.86262 z"
     sodipodi:nodetypes="sccccccccssssssss" /><path
     id="path151-7"
     style="display:inline;fill:#09d162;fill-opacity:1;stroke-width:12.1416"
     d="m 115.8161,-213.46147 v 194.30162 h 26.79552 c 0,0 0,-112.88445 0,-167.50602 0,-14.80073 -11.99475,-26.7956 -26.79552,-26.7956 z"
     sodipodi:nodetypes="cccsc" /><path
     style="display:inline;fill:#09d162;fill-opacity:1;stroke-width:12.1416"
     d="m 215.84151,-165.77058 c 23.71286,0 43.03028,16.50057 43.80734,41.7432 h -26.7967 c -1.28705,-10.29614 -7.21219,-17.25333 -18.2976,-17.25333 -10.30831,0 -16.74344,6.95719 -16.74344,15.18927 0,12.11743 12.38457,15.72349 26.54177,20.10663 C 244.44745,-99.804664 263,-87.699415 263,-61.157552 c 0,27.561699 -20.10669,45.604253 -47.92332,45.604253 -25.76472,0 -50.50953,-17.520498 -50.50953,-50.50954 h 26.80887 c 1.28703,17.277634 10.04114,26.031829 24.21058,26.031829 12.37233,0 20.61665,-7.989188 20.61665,-19.584552 0,-9.786294 -7.46717,-16.221347 -24.22271,-21.636551 -35.04104,-11.085408 -40.96611,-26.286757 -40.96611,-42.520237 0,-25.25478 21.38147,-41.99823 44.82708,-41.99823 z"
     id="path149-4" /><path
     style="display:inline;fill:#09d162;fill-opacity:1;stroke-width:12.1416"
     d="m -685.72563,-165.77058 c 23.71286,0 43.03027,16.50057 43.80733,41.7432 h -26.7967 c -1.28705,-10.29614 -7.21218,-17.25333 -18.2976,-17.25333 -10.3083,0 -16.74344,6.95719 -16.74344,15.18927 0,12.11743 12.38457,15.72349 26.54178,20.10663 20.09456,6.180146 38.64711,18.285395 38.64711,44.827258 0,27.561699 -20.10669,45.604252 -47.92332,45.604252 -25.76471,0 -50.50953,-17.520497 -50.50953,-50.509539 h 26.80888 c 1.28703,17.277634 10.04114,26.031829 24.21057,26.031829 12.37233,0 20.61665,-7.989188 20.61665,-19.584552 0,-9.786294 -7.46716,-16.221347 -24.22271,-21.636551 -35.04104,-11.085408 -40.96611,-26.286757 -40.96611,-42.520237 0,-25.25478 21.38147,-41.99823 44.82709,-41.99823 z"
     id="path149-4-1" /><path
     id="path2-9"
     style="display:inline;fill:#09d162;fill-opacity:1;stroke-width:12.1416"
     d="m 11.951174,-165.77058 c 20.85949,0 38.379974,7.7343 49.465316,23.9678 h 0.510152 v -20.09459 h 26.796709 v 142.738 H 61.926642 V -41.318002 H 61.41649 c -10.05336,16.998413 -28.09583,25.764703 -48.445375,25.764703 -41.731061,0 -75.740058,-31.434905 -75.740058,-72.656034 0,-45.604237 32.721915,-77.561247 74.720117,-77.561247 z m 0.764982,24.48987 c -28.290281,0 -51.122457,25.54661 -48.494024,55.730422 2.167528,24.891017 22.510727,45.006434 47.47411,45.507133 28.314469,0.567929 50.75232,-22.850643 50.75232,-50.230232 0,-27.828823 -20.106693,-51.007323 -49.732406,-51.007323 z"
     sodipodi:nodetypes="sccccccccssssssss" /><path
     id="path151-7-2-5"
     style="display:inline;fill:#09d162;fill-opacity:1;stroke-width:12.1416"
     d="m -112.71998,-161.89791 v 142.73806 h 26.795621 V -135.1023 c 0,-14.80075 -11.994841,-26.79561 -26.795621,-26.79561 z" /><path
     id="path5035"
     style="font-size:252.088px;line-height:1.25;font-family:'ITC Avant Garde Gothic Std';-inkscape-font-specification:'ITC Avant Garde Gothic Std';display:inline;fill:#09d162;fill-opacity:1;stroke-width:6.48059"
     d="m -534.59986,-165.77103 c -24.99333,0 -43.02828,11.99764 -53.59247,28.94925 v -24.77577 h -25.50884 V 5.116714 c 0,14.800751 11.99545,26.794224 26.79623,26.794224 v -51.636269 -23.47231 c 6.18393,11.474929 23.44821,27.643781 52.56416,27.643781 41.9991,0 70.5997,-34.163031 70.5997,-74.325308 0,-35.207182 -22.67577,-75.891862 -70.85878,-75.891862 z m -5.15359,25.29796 c 32.72323,0 48.95705,26.33887 48.95705,49.549533 v 0.261087 c 0,27.644161 -20.35502,49.81264 -48.69797,49.81264 -13.65615,0 -26.02513,-5.477082 -34.7857,-14.344081 -8.76054,-8.866988 -13.91226,-21.124582 -13.91226,-35.207461 0,-14.082868 5.1523,-26.601558 13.65519,-35.468558 8.76055,-9.12779 20.86989,-14.60316 34.78369,-14.60316 z" /><path
     d="m -296.78173,-82.055559 c 2.31898,-23.732251 -4.63793,-45.899741 -21.12837,-62.851341 -13.39849,-13.3005 -31.69258,-20.86352 -51.7903,-20.86352 -42.51443,0 -73.94933,34.68559 -73.94933,75.369454 0,37.554332 28.34295,74.847869 74.20699,74.847869 14.17148,0 28.08529,-3.91191 39.9378,-11.996523 11.8525,-7.823818 21.6437,-19.559547 28.34295,-35.207186 h -27.82764 c -7.72989,14.865257 -21.6437,23.993046 -40.45311,23.993046 -21.12839,0 -45.86404,-14.604462 -47.15236,-43.291799 z m -119.29805,-21.124311 c 1.28832,-19.29875 19.06708,-39.37989 46.37938,-39.37989 26.5393,-0.52159 45.09105,20.60273 46.37937,39.37989 z"
     id="path5037"
     style="font-size:252.088px;line-height:1.25;font-family:'ITC Avant Garde Gothic Std';-inkscape-font-specification:'ITC Avant Garde Gothic Std';fill:#09d162;fill-opacity:1;stroke-width:6.48059" /><path
     d="m -159.75745,-69.537448 c -5.66858,14.082874 -20.35538,28.426542 -43.80274,28.687336 -26.79697,0 -47.92534,-20.602723 -47.92534,-49.811647 0,-14.343671 5.41092,-27.644161 13.65615,-35.989561 9.79119,-9.38859 20.09772,-14.08287 34.26919,-13.82209 19.06708,0 36.58818,10.69256 43.80274,29.73052 h 27.56997 c -8.76055,-34.16401 -38.90714,-55.02753 -72.40336,-55.02753 -41.99909,0 -73.69166,33.12083 -73.69166,75.108661 0,39.379888 29.11594,75.108662 74.97999,75.108662 35.04219,0 62.61214,-23.210663 71.11503,-53.984351 z"
     id="path5039"
     style="font-size:252.088px;line-height:1.25;font-family:'ITC Avant Garde Gothic Std';-inkscape-font-specification:'ITC Avant Garde Gothic Std';fill:#09d162;fill-opacity:1;stroke-width:6.48059" /></g></svg>
