<?xml version="1.0" standalone="no"?>
<!DOCTYPE svg PUBLIC "-//W3C//DTD SVG 20010904//EN"
 "http://www.w3.org/TR/2001/REC-SVG-20010904/DTD/svg10.dtd">
<svg version="1.0" xmlns="http://www.w3.org/2000/svg"
 width="6000.000000pt" height="6000.000000pt" viewBox="0 0 6000.000000 6000.000000"
 preserveAspectRatio="xMidYMid meet">
<metadata>
Created by potrace 1.16, written by Peter Selinger 2001-2019
</metadata>
<g transform="translate(0.000000,6000.000000) scale(0.100000,-0.100000)"
fill="#000000" stroke="none">
<path d="M8340 30000 l0 -9760 21660 0 21660 0 0 9760 0 9760 -21660 0 -21660
0 0 -9760z m5703 7063 c8 -54 255 -1665 548 -3580 294 -1915 536 -3477 538
-3470 2 6 250 1616 551 3577 l546 3565 1667 3 1667 2 2 -6445 3 -6446 964
6388 c530 3513 968 6414 973 6446 l10 57 1713 0 1713 0 4 -22 c2 -13 425
-2809 939 -6214 l934 -6191 3 6214 2 6213 1363 0 c1565 0 1677 -4 2072 -76
1227 -222 2216 -949 2852 -2094 35 -63 61 -104 58 -90 -3 14 -86 518 -185
1120 -99 602 -182 1105 -185 1118 l-5 22 1340 0 1340 0 4 -22 c3 -13 267
-1929 586 -4258 320 -2329 585 -4243 588 -4253 4 -9 270 1896 591 4235 321
2339 585 4263 588 4276 l5 22 3619 0 3619 0 0 -1320 0 -1320 -1155 0 -1155 0
0 -1590 0 -1590 1155 0 1155 0 0 -1315 0 -1315 -1155 0 -1155 0 0 -1620 0
-1620 1155 0 1155 0 0 -1295 0 -1295 -2445 0 -2445 0 -2 6319 -3 6319 -1000
-6286 c-549 -3458 -1001 -6302 -1003 -6319 l-4 -33 -1512 0 -1511 0 -700 4249
c-385 2338 -703 4247 -706 4243 -3 -4 -14 -56 -23 -117 -77 -494 -248 -1030
-467 -1468 -262 -522 -581 -934 -1037 -1337 l-62 -55 805 -2735 c443 -1504
808 -2745 812 -2758 l5 -22 -1288 2 -1289 3 -592 2303 c-325 1267 -594 2306
-597 2309 -2 3 -76 -2 -163 -11 -87 -9 -222 -19 -300 -22 l-143 -7 0 -2289 0
-2288 -2445 0 c-1345 0 -2445 3 -2445 6 0 11 -260 2106 -266 2147 l-6 37
-1013 0 -1013 0 -6 -37 c-7 -44 -266 -2134 -266 -2146 0 -4 -1118 -7 -2485 -7
l-2485 0 -2 3419 -3 3418 -535 -3431 -535 -3431 -766 -3 -767 -2 -10 57 c-5
32 -248 1585 -538 3452 l-529 3394 -3 -3437 -2 -3436 -1290 0 -1290 0 0 7140
0 7140 1664 0 1664 0 15 -97z m34027 -5748 l0 -5845 1090 0 1090 0 0 -1295 0
-1295 -2380 0 -2380 0 0 7140 0 7140 1290 0 1290 0 0 -5845z"/>
<path d="M29400 32308 l0 -2274 63 3 c34 2 105 10 157 18 767 114 1318 821
1466 1880 22 161 30 583 14 758 -68 750 -355 1325 -817 1635 -210 142 -499
235 -770 249 l-113 6 0 -2275z"/>
<path d="M23221 33375 c0 -11 -163 -1359 -361 -2995 -198 -1636 -360 -2985
-360 -2997 l0 -23 725 0 725 0 0 22 c0 21 -716 5953 -724 5993 -3 20 -3 20 -5
0z"/>
</g>
</svg>
